# xmcd
#
# Track frame offsets:
#	150
#	11680
#	21725
#	34285
#	46645
#	58805
#	70610
#	83560
#	96335
#	110400
#	123325
#	134445
#	145105
#	156540
#	168840
#	178945
#	193240
#	207980
#
# Disc length: 2913 seconds
#
# Revision: 0
# Processed by: cddbd v1.5.2PL0 Copyright (c) Steve Scherf et al.
# Submitted via: audiograbber 1.83.01
#
DISCID=060b5f12
DTITLE=Various Artist - Country Ladies
DYEAR=1994
DGENRE=Country
TTITLE0=Skeeter Davis - Gonna Get Along Without You Now
TTITLE1=Kitty Wells - I Can't Stop Loving You
TTITLE2=Wanda Jackson - Crazy
TTITLE3=Jeannie Pruett - Satin Sheets
TTITLE4=Lynn Anderson - How Can I Unlove You
TTITLE5=Wilma Burgess - Misty Blue
TTITLE6=Norma Jean - Let's Go All The Way
TTITLE7=Jeannie Seely - I'll Love You More
TTITLE8=Billie Jo Spears - Mr. Walker, It's All Over
TTITLE9=Jeannie C Riley - There Never Was A Time
TTITLE10=Jean Shephard - A Satisfied Mind
TTITLE11=Connie Smith - Ain't Had No Lovin'
TTITLE12=Donna Fargo - Superman
TTITLE13=Sammi Smith - Send Me The Pillow You Dream On
TTITLE14=Susan Raye - Pitty Pitty Patter
TTITLE15=Margo Smith - It Only Hurts For A Little While
TTITLE16=Marion Worth - Shake Me I Rattle
TTITLE17=Barbara Fairchild - Kid Stuff
EXTD=
EXTT0=
EXTT1=
EXTT2=
EXTT3=
EXTT4=
EXTT5=
EXTT6=
EXTT7=
EXTT8=
EXTT9=
EXTT10=
EXTT11=
EXTT12=
EXTT13=
EXTT14=
EXTT15=
EXTT16=
EXTT17=
PLAYORDER=
